<svg id="Layer_1" data-name="Layer 1" xmlns="http://www.w3.org/2000/svg" xmlns:xlink="http://www.w3.org/1999/xlink" viewBox="0 0 561.92 273.98"><defs><clipPath id="clip-path" transform="translate(-103.33 -248.37)"><rect x="103.42" y="247.01" width="561.16" height="273.98" style="fill:none"/></clipPath><clipPath id="clip-path-2" transform="translate(-103.33 -248.37)"><rect x="103.58" y="248.37" width="561" height="272.62" style="fill:none"/></clipPath></defs><title>Coca-Cola FEMSA logo - Brandlogos.net</title><g style="clip-path:url(#clip-path)"><rect x="0.24" width="561.16" height="273.98" style="fill:#ed1c24"/></g><g style="clip-path:url(#clip-path-2)"><rect y="127.33" width="561.92" height="26.62" style="fill:#fff"/></g><g style="clip-path:url(#clip-path)"><path d="M279.45,261.89c15.34,0,7.9,20.21,1,20.21-5.93,0-4.94-9.41,4.71-10.37a4.2,4.2,0,0,0-3.72-5.5c-14.1,0-48,43.62-48,70a20.53,20.53,0,0,0,13.38,19.86,20.47,20.47,0,0,0,8.39,1.26c15.58,0,43.78-14,66.82-14a56.71,56.71,0,0,1,43.82,18.83c-15.85-8.5-32.41-9.87-40.09,0a24.12,24.12,0,0,0-22.26-10.37c-23.53,0-37.63,10.79-57.92,10.79a25.84,25.84,0,0,1-25.3-15.33,25.39,25.39,0,0,1-2.18-10.17c0-39,42.06-75.33,61.38-75.33M459,331a17,17,0,0,0,4.76-.86c13.32-37.67,42.18-68.28,56.12-68.28,5.08,0,6.34,5.59,2.21,13.83l-3.8.86c3.17-6.77,2.86-10.29,1.27-10.29-8.24,0-24.41,21.18-41.53,57.67a110.46,110.46,0,0,0,31.07-33,15.92,15.92,0,0,0,4.12-1.18,121.84,121.84,0,0,1-37.73,40.62c-5.7,15.56-5.39,21.49-1.27,21.49a65,65,0,0,0,16.49-21.18c4.44-8.54,21.24-26.79,30.12-15.89l.95-3.23h10.14l-17.76,35.6c-1.59,5,4.44,4.42,13-10.29h3.17c-12.68,25.93-32,30.6-29.8,16.48-12.05,13-20.93,9.71-19-3.53-12.68,19.13-29.81,16.77-19.34-15a10.15,10.15,0,0,1-5.08.29c-10.14,22.37-20.92,27.07-26,27.07a9.17,9.17,0,0,1-8.24-10c0-15.56,19-40.62,31.38-40.62,10.79,0,7.94,14.69,4.76,19.42m47.6-52.67a70.17,70.17,0,0,0-7.93,11.48c14.27,1.47,34.56-3.82,47.57-29.72a45,45,0,0,1-39.63,18.25M448.94,266c20-10.3,37.73,4.42,46,9.41-1.9,1.73-8.24,10.3-8.24,10.3-10.91-6.18-26.45-20.6-36-16.19,1.9,13.54-9.2,34.43-20.92,34.43-13.32,0-5.71-23.84,15.22-35.9,0,0-.32-1.47-2.54-1.47-16.8,0-55.49,50-55.49,77.1,0,9.13,5.71,11.77,9.82,11.77a34.49,34.49,0,0,0,26.68-33c0-7.66-10.14-10.3-14.27,11.47-3.81,0-8.57,2.35-14.59,10.6,3.81-23.24,14.59-32.37,23.79-32.37,4.75,0,8.56,1.73,8.56,10.6,0,21.78-22.2,39.76-35.51,39.76a19.69,19.69,0,0,1-18.73-13.42,19.34,19.34,0,0,1-.92-8.07c0-22.4,35.11-78.65,68.77-78.65a9.76,9.76,0,0,1,8.28,3.59M377.4,287.79h10.14l-5.82,10.59H371.43Zm-90.25,18.54a22.21,22.21,0,0,0,12.37-6.47c9.2-11.47,14.27-12.65,19-12.65,11.72,0,7.92,18.25-.63,18.25-3.17,0-4.44-10,4.76-10,1-1.73-.63-3.23-2.54-3.23-7.92,0-21.56,23.84-21.56,32.37,0,4.42,2.86,5.3,4.76,5.3,2.85,0,8.24.59,28.86-31.78,8.87-11.77,18.39-13.83,23.78-7.65l1.91-2.95h10.78l-18.08,34.43c-2.22,5.59,2.21,9.71,13-10h3.18c-12.37,28.84-34.56,30.9-30.12,17.06-11.73,12.36-23.15,11.18-19.34-5.29-11.73,19.13-45.34,21.78-24.42-15.3a21.11,21.11,0,0,1-7.29,1.47c-3.8,11.48-17.12,27.66-26.9,27.66a8.3,8.3,0,0,1-8.39-6,8.15,8.15,0,0,1-.18-3.67c0-15.89,18.08-40,32-40,7.92,0,8.88,9.41,5.07,18.54m231.08,12.94c-1.9,3.83-13.63,24.72-13.63,24.72-3.17,6.18-12.37,10.89-10.78,3.83,5.07-20,22.82-38.25,24.41-28.52m-74.2,8.21c1.9,5,9.19,7.65,9.19,7.65-5.7,13-10.78,16.78-13.95,16.78-6.34,0-6.66-8.82,4.76-24.43m10.47-10.88c3.17,0,6.34,5,.95,15-4.44-.86-7.92-2.35-8.24-7.66,1.9-4.7,3.17-7.36,7.29-7.36m-7.28-46.19c1.58,14.69-9.82,30-16.18,30-7.62,0-3.47-17.36,16.18-30m-95.45,21.49c1.9,0,1.9,2.35.95,4.41s-12.37,24.43-12.37,24.43C336.62,328.1,330,328.1,330,324c0-6.17,12.68-32.07,21.88-32.07m-79.61,10.88a14.44,14.44,0,0,0,9.83,6.77c-5.71,15.31-19.34,23.24-19.34,14.12a53.23,53.23,0,0,1,9.55-20.89m11.06,3.53c4.44-7.36,2.53-14.12-.63-14.12-3.8,0-6.94,4.71-7.92,8.54a11,11,0,0,0,8.57,5.59" transform="translate(-103.33 -248.37)" style="fill:#fff;fill-rule:evenodd"/><path d="M523.43,443.58l.92.14s.6.22.58-.13-1.87-23.45-1.87-23.45a77.78,77.78,0,0,0-31.62-6.39c-17.36.36-35.94,11.86-33.47,30.54a35.88,35.88,0,0,0,19.65,26.95c4.26,2.38,23.13,7.78,20.42,16.88s-19.09,10.42-34.9-10.54c0,0-2.07-2.15-2.07.24v23.23a51.07,51.07,0,0,0,41.78,9.46A30.63,30.63,0,0,0,528.1,491a30.18,30.18,0,0,0,2-10.93s1.74-22.47-26-33.37c-19.28-7.55-16.71-13.57-14.82-15.64s13.23-9.35,34.19,12.57" transform="translate(-103.33 -248.37)" style="fill:#fff;fill-rule:evenodd"/><path d="M556.11,414.56h.76l50.6,85.78a12.11,12.11,0,0,0,9.38,6.33s1.65-.09,1.55,1.18-1.18.86-1.18.86H579.53a16.35,16.35,0,0,1-15.86-9.32c-6.38-10.86-14.48-25.15-14.48-25.15a7.5,7.5,0,0,0-7.75-4.32,9.94,9.94,0,0,0-8.44,4.71l-1,2.15s-.51,1.36-1.74,1-.34-1.52-.34-1.52Z" transform="translate(-103.33 -248.37)" style="fill:#fff;fill-rule:evenodd"/><path d="M159.69,508.66V427.9s-.3-8-5.6-8.8c0,0-2.38.42-2.56-1.19a.8.8,0,0,1,.87-1H230L235,437.22s.36.68-.74.76-1.09-.16-1.28-.76A24.93,24.93,0,0,0,208.28,423l-12.3-.17V459h22a8.06,8.06,0,0,0,7.5-6.44s-.28-2.88.73-3.05q1.31-.52,1.56.86C228.09,451.66,235,480,235,480s.27.76-.45.93-1.1,0-1.37-.86-4.84-14.69-26.61-14.69H196.11V498a9.75,9.75,0,0,0,6,8.26c3.18,1.15,2.71,2.27,1.81,2.4Z" transform="translate(-103.33 -248.37)" style="fill:#fff;fill-rule:evenodd"/><path d="M245,508.66V427.9s-.3-8-5.6-8.8c0,0-2.38.42-2.6-1.19a.81.81,0,0,1,.87-1h77.64l4.94,20.34s.36.68-.73.76-1.1-.16-1.28-.76A24.91,24.91,0,0,0,293.51,423l-12.26-.17V459h22a8.05,8.05,0,0,0,7.5-6.44s-.27-2.88.73-3.05q1.3-.5,1.55.86c.28,1.28,7.13,29.59,7.13,29.59s.27.76-.46.93-1.09,0-1.36-.86-4.84-14.69-26.62-14.69H281.35v37.34h11.82s19.67,0,25-14.69a1.17,1.17,0,0,1,1.18-.64c.79.09.69.73.49,1.37s-4.83,20-4.83,20Z" transform="translate(-103.33 -248.37)" style="fill:#fff;fill-rule:evenodd"/><path d="M332.87,508.74l.08-79.8s-.69-9.66-7.14-10.15c0,0-1.29,0-1.47-.86s.6-.86,1.47-.86h39.76a12.59,12.59,0,0,1,10.74,5.11L392.57,450a6.3,6.3,0,0,0,6.6,3.83,5.47,5.47,0,0,0,5.29-4.9l5.21-30.42a1.79,1.79,0,0,1,1.81-1.44h38.64V498.1s1.54,7.55,6.71,8.5c0,0,1.81-.12,1.94.86s-.51,1.44-1.41,1.44H414.29l-.13-62.81L386.5,511.24h-.36l-39.47-65.87V497a9.17,9.17,0,0,0,7,9.46s1.61.36,1.61,1.32q.12,1-.87,1Z" transform="translate(-103.33 -248.37)" style="fill:#fff;fill-rule:evenodd"/></g></svg>