<svg xmlns="http://www.w3.org/2000/svg" id="Grupo_96" width="72.71" height="40" data-name="Grupo 96" viewBox="0 0 72.71 40">
    <defs>
        <style>
            .cls-1{fill:none}.cls-2,.cls-5{fill:#fff}.cls-3{clip-path:url(#clip-path)}.cls-4{fill:#ed1c24}.cls-5{fill-rule:evenodd}
        </style>
        <clipPath id="clip-path">
            <path id="Rectángulo_146" d="M0 0h64.662v31.7H0z" class="cls-1" data-name="Rectángulo 146"/>
        </clipPath>
    </defs>
    <path id="Rectángulo_142" d="M0 0h72.71v40H0z" class="cls-2" data-name="Rectángulo 142"/>
    <g id="Grupo_95" data-name="Grupo 95" transform="translate(3.991 4.2)">
        <g id="Grupo_94" class="cls-3" data-name="Grupo 94">
            <path id="Rectángulo_143" d="M0 0h64.662v31.7H0z" class="cls-4" data-name="Rectángulo 143" transform="translate(.018 .158)"/>
            <g id="Grupo_93" data-name="Grupo 93" transform="translate(.018 .158)">
                <g id="Grupo_92" class="cls-3" data-name="Grupo 92">
                    <path id="Rectángulo_144" d="M0 0h64.75v3.08H0z" class="cls-2" data-name="Rectángulo 144" transform="translate(-.028 14.732)"/>
                </g>
            </g>
            <path id="Trazado_38" d="M31.046 12.456c.512-.851.292-1.634-.073-1.634-.438 0-.8.545-.913.988a1.337 1.337 0 0 0 .987.647m-1.279-.409a1.732 1.732 0 0 0 1.133.783c-.658 1.771-2.229 2.689-2.229 1.634a6.241 6.241 0 0 1 1.1-2.417m9.171-1.259c.219 0 .219.272.109.51s-1.425 2.826-1.425 2.826c-.438.851-1.206.851-1.206.374 0-.714 1.461-3.71 2.521-3.71m11-2.486c.182 1.7-1.132 3.473-1.864 3.473-.878 0-.4-2.009 1.864-3.473m.84 5.345c.365 0 .731.578.109 1.736-.512-.1-.913-.272-.95-.886.219-.544.365-.851.84-.851m-1.206 1.26c.219.578 1.059.885 1.059.885-.657 1.5-1.242 1.941-1.607 1.941-.731 0-.767-1.021.549-2.826m8.549-.953c-.219.443-1.571 2.86-1.571 2.86-.365.715-1.425 1.26-1.242.443.584-2.316 2.63-4.426 2.813-3.3m-26.636-1.5a2.617 2.617 0 0 0 1.425-.749c1.06-1.327 1.644-1.464 2.193-1.464 1.351 0 .913 2.111-.073 2.111-.365 0-.512-1.158.548-1.158.11-.2-.073-.374-.293-.374-.913 0-2.484 2.758-2.484 3.745 0 .511.329.613.549.613.328 0 .949.068 3.325-3.677 1.022-1.362 2.119-1.6 2.74-.885l.22-.341h1.242l-2.083 3.984c-.256.647.255 1.123 1.5-1.158h.366c-1.425 3.337-3.982 3.575-3.471 1.974-1.352 1.43-2.668 1.294-2.229-.612-1.352 2.213-5.225 2.52-2.814-1.77a2.443 2.443 0 0 1-.84.17c-.438 1.328-1.973 3.2-3.1 3.2a.958.958 0 0 1-.987-1.124c0-1.838 2.083-4.63 3.691-4.63.913 0 1.023 1.089.584 2.145m10.39-2.145h1.169l-.671 1.225H41.2zm8.244-2.52c2.3-1.192 4.348.511 5.3 1.089-.219.2-.95 1.192-.95 1.192-1.257-.715-3.048-2.383-4.144-1.873.219 1.566-1.06 3.984-2.411 3.984-1.535 0-.658-2.758 1.754-4.154 0 0-.037-.17-.293-.17-1.936 0-6.394 5.788-6.394 8.92 0 1.056.658 1.362 1.132 1.362a3.991 3.991 0 0 0 3.074-3.813c0-.886-1.169-1.192-1.644 1.327-.439 0-.987.272-1.681 1.226.439-2.689 1.681-3.745 2.741-3.745.547 0 .986.2.986 1.226 0 2.52-2.558 4.6-4.092 4.6a2.271 2.271 0 0 1-2.265-2.486c0-2.592 4.046-9.1 7.924-9.1a1.179 1.179 0 0 1 .954.415m6.651 1.43a8.144 8.144 0 0 0-.914 1.328c1.644.17 3.982-.442 5.481-3.439a5.176 5.176 0 0 1-4.567 2.111m-5.481 6.094a1.956 1.956 0 0 0 .548-.1c1.535-4.358 4.86-7.9 6.467-7.9.585 0 .731.647.255 1.6l-.438.1c.365-.783.329-1.191.146-1.191-.95 0-2.813 2.451-4.786 6.672a12.892 12.892 0 0 0 3.58-3.813 1.84 1.84 0 0 0 .475-.136 14.254 14.254 0 0 1-4.348 4.7c-.657 1.8-.621 2.486-.146 2.486a7.6 7.6 0 0 0 1.9-2.451c.512-.988 2.448-3.1 3.471-1.838l.109-.374h1.169l-2.046 4.119c-.183.579.512.511 1.5-1.191h.365c-1.461 3-3.69 3.541-3.434 1.907-1.389 1.5-2.412 1.123-2.193-.409-1.461 2.213-3.435 1.94-2.228-1.737a1.182 1.182 0 0 1-.585.034c-1.169 2.588-2.411 3.132-3 3.132a1.06 1.06 0 0 1-.95-1.157c0-1.8 2.192-4.7 3.616-4.7 1.243 0 .915 1.7.549 2.247m-20.687-8c1.768 0 .91 2.338.113 2.338-.683 0-.569-1.089.543-1.2a.486.486 0 0 0-.429-.636c-1.625 0-5.53 5.047-5.53 8.1a2.374 2.374 0 0 0 2.509 2.444c1.795 0 5.045-1.621 7.7-1.621a6.522 6.522 0 0 1 5.049 2.179c-1.826-.983-3.735-1.142-4.62 0a2.775 2.775 0 0 0-2.565-1.2c-2.711 0-4.336 1.249-6.674 1.249a2.978 2.978 0 0 1-3.167-2.95c0-4.517 4.847-8.716 7.073-8.716" class="cls-5" data-name="Trazado 38" transform="translate(-10.318 -5.594)"/>
            <path id="Trazado_39" d="M70.563 36.536l.106.016s.069.025.067-.015-.216-2.713-.216-2.713a9.027 9.027 0 0 0-3.643-.739c-2 .042-4.141 1.372-3.857 3.534a4.15 4.15 0 0 0 2.264 3.118c.491.275 2.665.9 2.353 1.953s-2.2 1.205-4.021-1.22c0 0-.238-.249-.238.028v2.688a5.867 5.867 0 0 0 4.814 1.095 3.534 3.534 0 0 0 3.137-3.529s.2-2.6-3-3.861c-2.222-.873-1.926-1.57-1.708-1.81s1.525-1.082 3.94 1.454" class="cls-5" data-name="Trazado 39" transform="translate(-22.166 -13.792)"/>
            <path id="Trazado_40" d="M77.882 33.222h.087l5.831 9.925a1.467 1.467 0 0 0 1.081.732s.19-.01.179.137-.136.1-.136.1h-4.343a1.883 1.883 0 0 1-1.827-1.078c-.735-1.257-1.668-2.91-1.668-2.91a.932.932 0 0 0-.893-.5 1.208 1.208 0 0 0-.973.545l-.118.249s-.059.157-.2.12-.039-.176-.039-.176z" class="cls-5" data-name="Trazado 40" transform="translate(-25.719 -13.836)"/>
            <path id="Trazado_41" d="M13.513 44.232v-9.344s-.034-.93-.645-1.018c0 0-.274.049-.295-.138a.105.105 0 0 1 .1-.118h8.947l.569 2.353s.042.079-.085.088-.126-.019-.147-.088a2.871 2.871 0 0 0-2.845-1.647l-1.417-.02v4.187h2.54a.93.93 0 0 0 .864-.745s-.032-.333.084-.353a.133.133 0 0 1 .18.1c.031.148.822 3.423.822 3.423s.031.088-.052.107-.127 0-.158-.1-.558-1.7-3.066-1.7h-1.2v3.784a1.2 1.2 0 0 0 .693.956c.367.133.312.263.208.278z" class="cls-5" data-name="Trazado 41" transform="translate(-7.029 -13.959)"/>
            <path id="Trazado_42" d="M27.554 44.232v-9.344s-.034-.93-.645-1.018c0 0-.274.049-.3-.138a.106.106 0 0 1 .1-.118h8.947l.569 2.353s.042.079-.084.088-.127-.019-.148-.088a2.869 2.869 0 0 0-2.845-1.647l-1.413-.02v4.187h2.54a.929.929 0 0 0 .864-.745s-.031-.333.084-.353a.133.133 0 0 1 .179.1c.032.148.822 3.423.822 3.423s.031.088-.053.107-.126 0-.157-.1-.558-1.7-3.067-1.7h-1.2v4.32h1.362s2.267 0 2.88-1.7a.145.145 0 0 1 .136-.074c.091.01.08.084.057.158s-.556 2.311-.556 2.311z" class="cls-5" data-name="Trazado 42" transform="translate(-11.244 -13.959)"/>
            <path id="Trazado_43" d="M42.009 44.248l.009-9.233s-.079-1.118-.823-1.174c0 0-.149 0-.169-.1s.069-.1.169-.1h4.581a1.525 1.525 0 0 1 1.237.591l1.876 3.214a.786.786 0 0 0 .76.443.631.631 0 0 0 .61-.567l.6-3.52a.226.226 0 0 1 .209-.166h4.453v9.381s.178.873.773.984c0 0 .209-.014.223.1s-.059.166-.163.166h-4.963L51.376 37l-3.187 7.537h-.041L43.6 36.916v5.974a1.06 1.06 0 0 0 .81 1.094s.186.042.186.153a.1.1 0 0 1-.1.112z" class="cls-5" data-name="Trazado 43" transform="translate(-15.57 -13.965)"/>
        </g>
    </g>
</svg>
